# xmcd CD database file
#
# Track frame offsets:
#	150
#	17938
#	34574
#	50514
#	65027
#	81657
#	97259
#	115939
#	131404
#	150912
#	166799
#	182905
#	197778
#	224123
#	250619
#	268656
#	284266
#	300262
#	317508
#	331773
#
# Disc length: 4618 seconds
#
# Revision: 3
# Processed by: cddbd v1.5.2PL0 Copyright (c) Steve Scherf et al.
# Submitted via: CDex 1.51
#
DISCID=1d120814
DTITLE=Various Artist - Lovesongs and Emotions - CD1
DYEAR=2007
DGENRE=Country
TTITLE0=Phil Carmen - On my Way to L.A.
TTITLE1=Martin Schenkel - Sometimes
TTITLE2=Stress - Avenues
TTITLE3=Natacha - Sorry
TTITLE4=Kandlbauer - Maybe in Heaven
TTITLE5=Dada ante Portas - She cries for someone else
TTITLE6=Gotthard - Heaven
TTITLE7=Lovebugs - Avalon
TTITLE8=Mash - Ewigi Liäbi
TTITLE9=Schmetterband - Giggerig
TTITLE10=Bo Katzmann - Working on the Galley
TTITLE11=Mia Aegerter - So wie i bi
TTITLE12=Krokus - Tokyo Nights
TTITLE13=Touch el arab - Muhammar
TTITLE14=DJ Bobo - Let the Dream come true
TTITLE15=Carmen Fenk - I love you
TTITLE16=Scream - Aquarium
TTITLE17=Olivia Gray - Raining in my Heart
TTITLE18=Peter Reber - Jede brucht sy Insel
TTITLE19=Stephan Eicher - Campari Soda
EXTD=YEAR: 2007
EXTT0=
EXTT1=
EXTT2=
EXTT3=
EXTT4=
EXTT5=
EXTT6=
EXTT7=
EXTT8=
EXTT9=
EXTT10=
EXTT11=
EXTT12=
EXTT13=
EXTT14=
EXTT15=
EXTT16=
EXTT17=
EXTT18=
EXTT19=
PLAYORDER=
